<svg width="268" height="180" viewBox="0 0 268 180" fill="none" xmlns="http://www.w3.org/2000/svg">
<g filter="url(#filter0_f_7_8757)">
<path d="M151.907 29.625C151.907 29.625 142.143 42.861 134.512 42.425C124.946 41.863 123.312 30.325 114.444 29.625C105.166 29.764 104.219 41.725 94.1629 42.425C85.1529 42.264 81.3359 29.843 72.7469 29.625C64.1579 29.407 55.0029 42.425 55.0029 42.425" stroke="white" stroke-width="16" stroke-linecap="round"/>
<path d="M157.919 104.625C157.919 104.625 143.219 117.861 131.726 117.425C117.326 116.863 114.855 105.325 101.508 104.625C87.538 104.764 86.108 116.725 70.969 117.425C57.403 117.262 51.655 104.842 38.719 104.625C25.783 104.408 12 117.425 12 117.425" stroke="white" stroke-width="16" stroke-linecap="round"/>
<path d="M241.919 154.625C241.919 154.625 227.219 167.861 215.726 167.425C201.326 166.863 198.855 155.325 185.508 154.625C171.538 154.764 170.108 166.725 154.969 167.425C141.403 167.262 135.655 154.842 122.719 154.625C109.783 154.408 96 167.425 96 167.425" stroke="white" stroke-width="16" stroke-linecap="round"/>
<path d="M242.07 4.00001C240.125 4.02201 220.393 34.829 220.393 46.803C220.393 52.5522 222.676 58.066 226.742 62.1313C230.807 66.1966 236.321 68.4805 242.07 68.4805C247.819 68.4805 253.333 66.1966 257.398 62.1313C261.464 58.066 263.748 52.5522 263.748 46.803C263.748 34.829 244.015 3.97901 242.07 4.00001Z" fill="#42A0F0"/>
<path d="M254.144 40.3396C251.978 41.0018 251.219 44.7994 252.449 48.8218C253.679 52.8443 256.432 55.5682 258.598 54.906C260.764 54.2438 261.523 50.4462 260.293 46.4238C259.063 42.4014 256.31 39.6774 254.144 40.3396Z" fill="white"/>
<path d="M198.316 59C196.931 59.016 182.884 80.948 182.884 89.471C182.884 93.5638 184.51 97.489 187.404 100.383C190.298 103.277 194.223 104.903 198.316 104.903C202.409 104.903 206.334 103.277 209.228 100.383C212.122 97.489 213.748 93.5638 213.748 89.471C213.748 80.948 199.7 58.985 198.316 59Z" fill="#42A0F0"/>
<path d="M206.911 84.8695C205.369 85.341 204.828 88.0447 205.704 90.9084C206.579 93.772 208.539 95.7112 210.082 95.2397C211.624 94.7682 212.164 92.0645 211.289 89.2009C210.413 86.3373 208.453 84.398 206.911 84.8695Z" fill="white"/>
</g>
<defs>
<filter id="filter0_f_7_8757" x="0" y="0" width="267.748" height="179.435" filterUnits="userSpaceOnUse" color-interpolation-filters="sRGB">
<feFlood flood-opacity="0" result="BackgroundImageFix"/>
<feBlend mode="normal" in="SourceGraphic" in2="BackgroundImageFix" result="shape"/>
<feGaussianBlur stdDeviation="2" result="effect1_foregroundBlur_7_8757"/>
</filter>
</defs>
</svg>
