<svg width="30" height="30" viewBox="0 0 30 30" fill="none" xmlns="http://www.w3.org/2000/svg">
<path d="M16 8C17 8 18.5 8 20.5 8C23.5376 8 26 10.4624 26 13.5C26 16.5376 23.5376 19 20.5 19H9.5C6.46243 19 4 16.5376 4 13.5C4 11.4768 5.09241 9.70878 6.71956 8.75354" stroke="#595959" stroke-width="2" stroke-linecap="round"/>
<path d="M21 8C21 4.13401 17.866 1 14 1C10.134 1 7 4.13401 7 8C7 9.50276 7.47354 10.8949 8.27955 12.0354" stroke="#595959" stroke-width="2" stroke-linecap="round"/>
<path fill-rule="evenodd" clip-rule="evenodd" d="M16 25C16 25.5523 15.5523 26 15 26C14.4477 26 14 25.5523 14 25C14 24.4477 14.4477 24 15 24C15.5523 24 16 24.4477 16 25ZM15 29C15 29.5523 14.5523 30 14 30C13.4477 30 13 29.5523 13 29C13 28.4477 13.4477 28 14 28C14.5523 28 15 28.4477 15 29Z" fill="#595959"/>
<path d="M9 25L8 29" stroke="#595959" stroke-width="2" stroke-linecap="round"/>
<path d="M21 25L20 29" stroke="#595959" stroke-width="2" stroke-linecap="round"/>
</svg>
