<svg width="30" height="30" viewBox="0 0 30 30" fill="none" xmlns="http://www.w3.org/2000/svg">
<path d="M1 24.5L3.21115 25.6056C4.33726 26.1686 5.66274 26.1686 6.78885 25.6056L7.21115 25.3944C8.33726 24.8314 9.66274 24.8314 10.7889 25.3944L11.2111 25.6056C12.3373 26.1686 13.6627 26.1686 14.7889 25.6056L15.2098 25.3951C16.3366 24.8317 17.6631 24.8321 18.7897 25.3962L19.2055 25.6045C20.3312 26.1682 21.6567 26.169 22.7832 25.6067L23.212 25.3926C24.3377 24.8307 25.6621 24.8311 26.7875 25.3937L29 26.5" stroke="#595959" stroke-width="2" stroke-linecap="round"/>
<path d="M1 20.5L3.21115 21.6056C4.33726 22.1686 5.66274 22.1686 6.78885 21.6056L7.21115 21.3944C8.33726 20.8314 9.66274 20.8314 10.7889 21.3944L11.2111 21.6056C12.3373 22.1686 13.6627 22.1686 14.7889 21.6056L15.2098 21.3951C16.3366 20.8317 17.6631 20.8321 18.7897 21.3962L19.2055 21.6045C20.3312 22.1682 21.6567 22.169 22.7832 21.6067L23.212 21.3926C24.3377 20.8307 25.6621 20.8311 26.7875 21.3937L29 22.5" stroke="#595959" stroke-width="2" stroke-linecap="round"/>
<path fill-rule="evenodd" clip-rule="evenodd" d="M8.91056 4.17889C8.94741 4.10518 9.05259 4.10518 9.08944 4.17889L11.9276 9.85528C11.9609 9.92177 11.9125 10 11.8382 10H6.1618C6.08747 10 6.03912 9.92177 6.07236 9.85528L8.91056 4.17889Z" stroke="#595959" stroke-width="2" stroke-linecap="round"/>
<path fill-rule="evenodd" clip-rule="evenodd" d="M20.9106 4.17889C20.9474 4.10518 21.0526 4.10518 21.0894 4.17889L23.9276 9.85528C23.9609 9.92177 23.9125 10 23.8382 10H18.1618C18.0875 10 18.0391 9.92177 18.0724 9.85528L20.9106 4.17889Z" stroke="#595959" stroke-width="2" stroke-linecap="round"/>
<path d="M9 10V15" stroke="#595959" stroke-width="2" stroke-linecap="round"/>
<path d="M21 10V15" stroke="#595959" stroke-width="2" stroke-linecap="round"/>
</svg>
