<svg width="30" height="30" viewBox="0 0 30 30" fill="none" xmlns="http://www.w3.org/2000/svg">
<path fill-rule="evenodd" clip-rule="evenodd" d="M11 16.2547V5C11 2.79086 12.7909 1 15 1C17.2091 1 19 2.79086 19 5V16.2547C20.8135 17.5196 22 19.6213 22 22C22 25.866 18.866 29 15 29C11.134 29 8 25.866 8 22C8 19.6213 9.18652 17.5196 11 16.2547Z" stroke="#595959" stroke-width="2" stroke-linecap="round"/>
<path fill-rule="evenodd" clip-rule="evenodd" d="M14 18.126V5C14 4.44772 14.4477 4 15 4C15.5523 4 16 4.44772 16 5V18.126C17.7252 18.5701 19 20.1362 19 22C19 24.2091 17.2091 26 15 26C12.7909 26 11 24.2091 11 22C11 20.1362 12.2748 18.5701 14 18.126Z" fill="#595959"/>
</svg>
