<svg width="30" height="30" viewBox="0 0 30 30" fill="none" xmlns="http://www.w3.org/2000/svg">
<path d="M1 12L24.9973 12.0041C27.2078 12.0044 29 10.2125 29 8.00203V8.00203C29 5.79177 27.2082 4 24.998 4L22 4" stroke="#595959" stroke-width="2" stroke-linecap="round"/>
<path d="M3 17L25.0026 17.0043C26.1058 17.0046 27 17.899 27 19.0022V19.0022C27 20.1055 26.1055 21 25.0022 21H22" stroke="#595959" stroke-width="2" stroke-linecap="round"/>
<path d="M5 22L16.0027 22.004C17.1059 22.0044 18 22.8988 18 24.002V24.002C18 25.1055 17.1055 26 16.002 26H13" stroke="#595959" stroke-width="2" stroke-linecap="round"/>
<path d="M5 8H19" stroke="#595959" stroke-width="2" stroke-linecap="round"/>
</svg>
